<svg width="15" height="16" viewBox="0 0 15 16" fill="none" xmlns="http://www.w3.org/2000/svg">
<path d="M14.375 2.66666H13.1251H13.125H11.113L10.9076 1.78972C10.6613 0.737781 9.77514 0 8.75874 0H6.24123C5.22483 0 4.33869 0.737781 4.09236 1.78978L3.88693 2.66666H1.87506H1.87503C1.87503 2.66666 1.87503 2.66666 1.875 2.66666H0.62499C0.279814 2.66666 0 2.96516 0 3.33334C0 3.70153 0.279814 4 0.62499 4H1.28382L1.8104 14.1103C1.86571 15.1704 2.68781 16 3.68317 16H11.3169C12.3123 16 13.1344 15.1704 13.1897 14.1104L13.7163 4H14.375C14.7202 4 15 3.70153 15 3.33334C15 2.96516 14.7202 2.66666 14.375 2.66666ZM5.30511 2.11294C5.41242 1.65469 5.79841 1.33331 6.24126 1.33331H8.75877C9.20162 1.33331 9.58761 1.65469 9.69489 2.11287L9.82462 2.66666H5.17538L5.30511 2.11294ZM11.9416 14.0363C11.9232 14.3898 11.6489 14.6667 11.3169 14.6667H3.68317C3.35124 14.6667 3.0769 14.3898 3.05845 14.0363L2.53576 4H4.37502H10.625H12.4644L11.9416 14.0363Z" fill="#ED5B4E"/>
<path d="M5.00007 5.3335C4.65489 5.3335 4.37508 5.63197 4.37508 6.00015V12.6668C4.37508 13.035 4.65489 13.3335 5.00007 13.3335C5.34524 13.3335 5.62506 13.035 5.62506 12.6668V6.00015C5.62506 5.63197 5.34524 5.3335 5.00007 5.3335Z" fill="#ED5B4E"/>
<path d="M7.49991 5.3335C7.15473 5.3335 6.87492 5.63197 6.87492 6.00015V12.6668C6.87492 13.035 7.15473 13.3335 7.49991 13.3335C7.84508 13.3335 8.12489 13.035 8.12489 12.6668V6.00015C8.12489 5.63197 7.84508 5.3335 7.49991 5.3335Z" fill="#ED5B4E"/>
<path d="M9.99999 5.3335C9.65481 5.3335 9.375 5.63197 9.375 6.00015V12.6668C9.375 13.035 9.65481 13.3335 9.99999 13.3335C10.3452 13.3335 10.625 13.035 10.625 12.6668V6.00015C10.625 5.63197 10.3452 5.3335 9.99999 5.3335Z" fill="#ED5B4E"/>
</svg>
