<svg width="33" height="38" viewBox="0 0 33 38" fill="none" xmlns="http://www.w3.org/2000/svg">
<path d="M32.017 4.25953C31.9739 3.82456 31.5864 3.50692 31.1515 3.55005C31.0849 3.55668 31.0194 3.57171 30.9566 3.59476C29.2577 4.24489 27.4573 4.59053 25.6384 4.61566C22.1695 4.67254 18.8766 3.09203 16.7511 0.350052C16.5073 -0.0127029 16.0156 -0.109154 15.6528 0.134595C15.5677 0.191773 15.4945 0.264977 15.4374 0.350052C13.3 3.07828 10.0156 4.6576 6.55001 4.62357C4.7311 4.59845 2.93077 4.25281 1.23185 3.60268C0.821614 3.45192 0.366859 3.66233 0.216099 4.07257C0.19305 4.13538 0.178013 4.20087 0.171385 4.26745C0.171385 4.54443 -2.44813 31.6892 15.841 37.957C16.0077 38.0143 16.1887 38.0143 16.3554 37.957C34.6366 31.6576 32.0487 4.52861 32.017 4.25953ZM16.0942 36.3584C1.17646 31.0165 1.41387 10.2425 1.67503 5.41497C3.25099 5.92245 4.89442 6.18924 6.55001 6.20636C10.1786 6.2394 13.6496 4.72547 16.0942 2.04363C18.5396 4.72339 22.0108 6.23445 25.6384 6.19844C27.2939 6.18123 28.9374 5.91443 30.5134 5.40705C30.7746 10.2345 31.012 31.0165 16.0942 36.3584Z" fill="#919797"/>
<path d="M27.5854 8.58068C27.5592 8.31942 27.405 8.08813 27.1739 7.96339C26.9676 7.83518 26.7137 7.80897 26.4854 7.89216C25.3097 8.34138 24.0639 8.57979 22.8054 8.5965C20.4323 8.634 18.1791 7.55582 16.7196 5.68418C16.5738 5.46842 16.3311 5.33814 16.0707 5.33596C15.8089 5.33379 15.563 5.4612 15.4138 5.67626C13.9543 7.55305 11.6973 8.63469 9.32009 8.5965C8.07365 8.58374 6.83898 8.35345 5.67177 7.91591C5.26153 7.76514 4.80678 7.97556 4.65602 8.38579C4.63297 8.44861 4.61793 8.5141 4.6113 8.58068C4.53216 9.37207 2.7357 28.1439 15.8412 32.6311C16.0079 32.6884 16.1889 32.6884 16.3556 32.6311C29.4531 28.1439 27.6646 9.37998 27.5854 8.58068ZM16.0944 31.0167C6.05955 27.3525 5.94876 13.5348 6.12286 9.70445C7.17166 10.0127 8.25854 10.1726 9.35175 10.1793C11.8917 10.2022 14.3295 9.18075 16.0944 7.35402C17.8593 9.18075 20.2971 10.2022 22.8371 10.1793C23.9303 10.1726 25.0172 10.0127 26.066 9.70445C26.2401 13.5348 26.1293 27.3525 16.0944 31.0167Z" fill="#919797"/>
<path d="M11 17.5L15.5 22L22.5 15" stroke="#919797" stroke-width="1.5" stroke-linecap="round" stroke-linejoin="round"/>
</svg>
