<svg width="38" height="34" viewBox="0 0 38 34" fill="none" xmlns="http://www.w3.org/2000/svg">
<path d="M33.7669 6.63684H25.6865V3.34366C25.6865 1.77562 24.4252 0.5 22.8749 0.5H14.625C13.0747 0.5 11.8134 1.77562 11.8134 3.34366V6.63684H3.73311C1.67462 6.63684 0 8.33066 0 10.4126V29.7243C0 31.8063 1.67462 33.5 3.73311 33.5H33.7669C35.8253 33.5 37.5 31.8063 37.5 29.7243V10.4126C37.5 8.33066 35.8253 6.63684 33.7669 6.63684ZM14.1949 3.34366C14.1949 3.10377 14.3878 2.90867 14.625 2.90867H22.8749C23.1121 2.90867 23.3051 3.10385 23.3051 3.34366V6.63684H14.1949V3.34366ZM2.38148 10.4126C2.38148 9.65875 2.98779 9.04551 3.73311 9.04551H33.7669C34.5121 9.04551 35.1185 9.65875 35.1185 10.4126V12.1951C35.1185 13.867 34.0101 15.361 32.423 15.8284L19.969 19.4958C19.1716 19.7308 18.3285 19.7308 17.5309 19.4958L5.07701 15.8283C3.48991 15.361 2.38148 13.867 2.38148 12.1951V10.4126ZM33.7669 31.0914H3.73311C2.98786 31.0914 2.38148 30.4782 2.38148 29.7244V17.0989C2.98153 17.568 3.66554 17.9214 4.41124 18.141C18.1687 22.1923 17.4616 22.0808 18.75 22.0808C20.0554 22.0808 19.3152 22.197 33.0887 18.141C33.8345 17.9214 34.5185 17.568 35.1185 17.0989V29.7243C35.1185 30.4781 34.5121 31.0914 33.7669 31.0914Z" fill="#919797"/>
</svg>
