<svg width="28" height="30" viewBox="0 0 28 30" fill="none" xmlns="http://www.w3.org/2000/svg">
<path d="M27.5994 15.6646C27.6056 15.6585 27.6056 15.6585 27.6117 15.6523C27.6301 15.6279 27.6484 15.6095 27.6607 15.585C27.6668 15.5789 27.6668 15.5727 27.6729 15.5666C27.6852 15.5421 27.7035 15.5176 27.7158 15.4931C27.7158 15.487 27.7219 15.4809 27.7219 15.4809C27.7342 15.4564 27.7464 15.4319 27.7586 15.4013C27.7586 15.3952 27.7586 15.3952 27.7648 15.389C27.777 15.3645 27.7831 15.3339 27.7954 15.3033C27.7954 15.2972 27.7954 15.291 27.8015 15.291C27.8076 15.2604 27.8199 15.2359 27.8199 15.2053C27.8199 15.1931 27.8199 15.1869 27.826 15.1747C27.8321 15.1502 27.8321 15.1257 27.8383 15.1012C27.8444 15.0645 27.8444 15.0339 27.8444 14.9971C27.8444 14.9604 27.8444 14.9298 27.8383 14.893C27.8383 14.8685 27.8321 14.844 27.826 14.8195C27.826 14.8073 27.826 14.8012 27.8199 14.7889C27.8138 14.7583 27.8076 14.7338 27.8015 14.7032C27.8015 14.6971 27.8015 14.6909 27.7954 14.6909C27.7893 14.6603 27.777 14.6358 27.7648 14.6052C27.7648 14.5991 27.7648 14.5991 27.7586 14.5929C27.7464 14.5685 27.7342 14.5378 27.7219 14.5133C27.7219 14.5072 27.7158 14.5011 27.7158 14.5011C27.7035 14.4766 27.6913 14.4521 27.6729 14.4276C27.6668 14.4215 27.6668 14.4154 27.6607 14.4092C27.6423 14.3847 27.6301 14.3602 27.6117 14.3419C27.6056 14.3358 27.6056 14.3358 27.5994 14.3296C27.5749 14.3051 27.5566 14.2745 27.5259 14.25L21.4696 8.19981C21.0593 7.78952 20.3918 7.78952 19.9816 8.19981C19.5713 8.61009 19.5713 9.27758 19.9816 9.68786L24.2436 13.95H7.29937C6.71762 13.95 6.24609 14.4215 6.24609 14.9971C6.24609 15.5789 6.71762 16.0504 7.29937 16.0504H24.2498L20.0183 20.2819C19.608 20.6922 19.608 21.3596 20.0183 21.7699C20.2204 21.972 20.4898 22.0761 20.7593 22.0761C21.0287 22.0761 21.2981 21.972 21.5002 21.7699L27.5198 15.7503C27.5504 15.7136 27.5749 15.6891 27.5994 15.6646Z" fill="#919797"/>
<path d="M5.70116 2.10043H13.5395C14.1212 2.10043 14.5928 1.6289 14.5928 1.05328C14.5928 0.471525 14.1212 0 13.5395 0H5.70116C2.55971 0 0 2.55971 0 5.70116V24.2988C0 27.4403 2.55971 30 5.70116 30H13.4109C13.9927 30 14.4642 29.5285 14.4642 28.9528C14.4642 28.3711 13.9927 27.8996 13.4109 27.8996H5.70116C3.71709 27.8996 2.10043 26.2829 2.10043 24.2988V5.70116C2.10655 3.71096 3.71709 2.10043 5.70116 2.10043Z" fill="#919797"/>
</svg>
