<svg width="22" height="14" viewBox="0 0 22 14" fill="none" xmlns="http://www.w3.org/2000/svg">
<path d="M21.2778 6.40769C21.0865 6.146 16.5283 0 10.7068 0C4.8853 0 0.32698 6.146 0.135886 6.40744C-0.0452954 6.65571 -0.0452954 6.99243 0.135886 7.2407C0.32698 7.50239 4.8853 13.6484 10.7068 13.6484C16.5283 13.6484 21.0865 7.50235 21.2778 7.24091C21.4592 6.99268 21.4592 6.6557 21.2778 6.40769ZM10.7068 12.2365C6.41865 12.2365 2.70463 8.15727 1.60521 6.82371C2.70321 5.48898 6.40945 1.41189 10.7068 1.41189C14.9948 1.41189 18.7085 5.4904 19.8084 6.82467C18.7104 8.15936 15.0042 12.2365 10.7068 12.2365Z" fill="#919797"/>
<path d="M10.7064 2.5885C8.37089 2.5885 6.4707 4.48869 6.4707 6.82423C6.4707 9.15976 8.37089 11.06 10.7064 11.06C13.042 11.06 14.9422 9.15976 14.9422 6.82423C14.9422 4.48869 13.042 2.5885 10.7064 2.5885ZM10.7064 9.64802C9.14932 9.64802 7.88264 8.38129 7.88264 6.82423C7.88264 5.26716 9.14936 4.00044 10.7064 4.00044C12.2635 4.00044 13.5302 5.26716 13.5302 6.82423C13.5302 8.38129 12.2635 9.64802 10.7064 9.64802Z" fill="#919797"/>
</svg>
