<svg width="9" height="16" viewBox="0 0 9 16" fill="none" xmlns="http://www.w3.org/2000/svg">
<path d="M3.03488 11.2688C3.03488 10.3154 3.15 9.55556 3.38023 8.98925C3.61047 8.42294 4.06395 7.80287 4.7407 7.12903C5.42442 6.44803 5.85698 5.96416 6.03837 5.67742C6.31744 5.24014 6.45698 4.76702 6.45698 4.25806C6.45698 3.58423 6.29302 3.07168 5.96512 2.72043C5.64419 2.36201 5.16977 2.1828 4.54186 2.1828C3.94186 2.1828 3.45698 2.35842 3.08721 2.70968C2.72442 3.05376 2.54302 3.5233 2.54302 4.11828H0C0.0139535 2.84946 0.432558 1.84588 1.25581 1.10753C2.08605 0.369176 3.1814 0 4.54186 0C5.94419 0 7.03605 0.365591 7.81744 1.09677C8.60581 1.82796 9 2.84946 9 4.16129C9 5.32975 8.46977 6.48029 7.4093 7.6129L6.12209 8.91398C5.66163 9.45161 5.42442 10.2366 5.41046 11.2688H3.03488ZM2.85698 14.6129C2.85698 14.19 2.98605 13.8495 3.24419 13.5914C3.50233 13.3262 3.85116 13.1935 4.2907 13.1935C4.73721 13.1935 5.08953 13.3297 5.34767 13.6022C5.60581 13.8674 5.73488 14.2043 5.73488 14.6129C5.73488 15.0072 5.6093 15.3369 5.35814 15.6022C5.10698 15.8674 4.75116 16 4.2907 16C3.83023 16 3.47442 15.8674 3.22326 15.6022C2.97907 15.3369 2.85698 15.0072 2.85698 14.6129Z" fill="#F3BE37"/>
</svg>
