<svg width="38" height="38" viewBox="0 0 38 38" fill="none" xmlns="http://www.w3.org/2000/svg">
<path d="M32.1928 29.1185L32.3108 29.1983L32.3966 29.0846C34.2904 26.575 35.4963 23.5186 35.7317 20.1981L35.7431 20.0375H35.5821H29.6667H29.5217L29.5168 20.1824C29.4365 22.5609 29.1144 24.8561 28.5726 26.9687L28.5413 27.091L28.6564 27.1428C29.8816 27.694 31.0635 28.3542 32.1928 29.1185ZM2.4179 20.0375H2.25688L2.26827 20.1981C2.50374 23.5186 3.70957 26.575 5.60342 29.0846L5.68924 29.1983L5.80723 29.1184C6.93648 28.3542 8.11838 27.694 9.34363 27.1428L9.45875 27.091L9.42739 26.9687C8.88567 24.8561 8.56361 22.5609 8.4832 20.1824L8.4783 20.0375H8.33328H2.4179ZM5.80693 8.88193L5.68894 8.80207L5.60312 8.9158C3.70949 11.4254 2.50374 14.4816 2.26827 17.8019L2.25688 17.9625H2.4179H8.33321H8.47822L8.48312 17.8176C8.56353 15.4392 8.88552 13.1442 9.42724 11.0317L9.4586 10.9095L9.34348 10.8577C8.11809 10.3065 6.93619 9.64622 5.80693 8.88193ZM25.4175 3.50206L24.9006 3.28723L25.2408 3.73175C25.7354 4.37791 26.2012 5.1071 26.6329 5.91643C27.1011 6.79423 27.517 7.74361 27.8774 8.75147L27.9328 8.90658L28.0821 8.83687C29.0129 8.40217 29.9155 7.89908 30.7844 7.32822L30.939 7.22664L30.8076 7.09636C29.2723 5.57335 27.4448 4.3446 25.4175 3.50206ZM25.8507 9.72898L25.995 9.68062L25.9446 9.53705C25.1807 7.36242 24.1647 5.5397 22.9829 4.2579C21.8012 2.97625 20.443 2.225 19 2.225C17.557 2.225 16.1988 2.97625 15.0171 4.2579C13.8353 5.5397 12.8193 7.36242 12.0554 9.53705L12.005 9.68062L12.1493 9.72898C14.3328 10.4609 16.637 10.8375 19 10.8375C21.363 10.8375 23.6672 10.4609 25.8507 9.72898ZM10.5601 17.8069L10.5543 17.9625H10.71H27.29H27.4457L27.4399 17.8069C27.3612 15.6936 27.0757 13.6738 26.624 11.8307L26.5853 11.6729L26.4311 11.724C24.0614 12.5089 21.5627 12.9125 19 12.9125C16.4373 12.9125 13.9386 12.5089 11.5689 11.724L11.4147 11.6729L11.376 11.8307C10.9243 13.6738 10.6388 15.6936 10.5601 17.8069ZM27.4399 20.1931L27.4457 20.0375H27.29H10.71H10.5543L10.5601 20.1931C10.6388 22.3065 10.9243 24.3265 11.3761 26.1696L11.4148 26.3274L11.569 26.2763C13.9389 25.4913 16.4376 25.0875 19 25.0875C21.5624 25.0875 24.0611 25.4913 26.431 26.2763L26.5852 26.3274L26.6239 26.1696C27.0757 24.3265 27.3611 22.3065 27.4399 20.1931ZM9.91791 8.8368L10.0671 8.90649L10.1226 8.7514C10.4831 7.74362 10.8989 6.79423 11.3671 5.91642C11.7987 5.1071 12.2646 4.37791 12.7592 3.73167L13.0993 3.2872L12.5825 3.50199C10.5552 4.34452 8.72766 5.5732 7.19236 7.09629L7.06104 7.22657L7.21564 7.32814C8.08448 7.899 8.98721 8.40217 9.91791 8.8368ZM10.1227 29.249L10.0672 29.0939L9.91798 29.1637C8.98743 29.5983 8.08486 30.1014 7.21602 30.6721L7.0614 30.7737L7.19274 30.904C8.72796 32.4269 10.5553 33.6554 12.5824 34.4979L13.0993 34.7128L12.7591 34.2683C12.2645 33.6221 11.7987 32.8929 11.367 32.0836C10.8989 31.2059 10.4831 30.2567 10.1227 29.249ZM12.1494 28.2713L12.0052 28.3197L12.0556 28.4632C12.8195 30.6378 13.8354 32.4604 15.0172 33.7422C16.1989 35.0238 17.5571 35.775 19 35.775C20.4429 35.775 21.8011 35.0238 22.9828 33.7422C24.1646 32.4604 25.1805 30.6378 25.9444 28.4632L25.9948 28.3197L25.8506 28.2713C23.6669 27.5392 21.3628 27.1625 19 27.1625C16.6372 27.1625 14.3331 27.5392 12.1494 28.2713ZM28.0819 29.1637L27.9327 29.094L27.8772 29.249C27.5168 30.2567 27.101 31.2059 26.6329 32.0836C26.2013 32.8929 25.7354 33.6221 25.2408 34.2683L24.9006 34.7128L25.4175 34.4979C27.4446 33.6555 29.272 32.4269 30.8072 30.904L30.9385 30.7737L30.7839 30.6721C29.9151 30.1014 29.0126 29.5983 28.0819 29.1637ZM29.5168 17.8176L29.5217 17.9625H29.6667H35.582H35.743L35.7317 17.8019C35.4962 14.4815 34.2904 11.4253 32.3968 8.9158L32.311 8.80206L32.193 8.88193C31.0638 9.64622 29.8818 10.3065 28.6564 10.8577L28.5413 10.9095L28.5727 11.0317C29.1144 13.1442 29.4364 15.4393 29.5168 17.8176ZM19 0.15C24.0353 0.15 28.7684 2.11049 32.329 5.67099C35.8895 9.23156 37.85 13.9647 37.85 19C37.85 24.0353 35.8896 28.7685 32.329 32.329C28.7684 35.8895 24.0353 37.85 19 37.85C13.9647 37.85 9.23148 35.8896 5.67099 32.329C2.11049 28.7684 0.15 24.0353 0.15 19C0.15 13.9647 2.11042 9.23148 5.67099 5.67099C9.23156 2.11049 13.9647 0.15 19 0.15Z" fill="#919797" stroke="white" stroke-width="0.3"/>
</svg>
